<svg id="Layer_1" data-name="Layer 1" xmlns="http://www.w3.org/2000/svg" viewBox="0 0 196 91.61"><defs><style>.cls-1{fill:#fff;}</style></defs><title>klanodizing-logo</title><path class="cls-1" d="M12.31,90.06c-0.56,1.86-1.91,2.74-4.2,2.74-2.7,0-4.45-1.43-4.45-3.61a3.46,3.46,0,0,1,1-2.43,4.84,4.84,0,0,1,3.57-1.2,4.67,4.67,0,0,1,3.31,1.1,2.18,2.18,0,0,1,.71,1.42H11.35C11,86.83,10,86.18,8.23,86.18a3.74,3.74,0,0,0-3.16,1.26,2.94,2.94,0,0,0-.55,1.74c0,1.83,1.39,3,3.54,3a3.55,3.55,0,0,0,2.82-1.08,2.3,2.3,0,0,0,.51-1h0.92Z" transform="translate(-2 -1.2)"/><path class="cls-1" d="M32.41,89.24A3.45,3.45,0,0,1,30.91,92a5.36,5.36,0,0,1-3,.81,4.87,4.87,0,0,1-3.66-1.32,3.47,3.47,0,0,1-.9-2.32c0-2.15,1.86-3.59,4.63-3.59S32.41,87.05,32.41,89.24Zm-8.23-.07c0,1.82,1.47,3,3.7,3s3.66-1.21,3.66-3-1.4-3-3.7-3S24.18,87.36,24.18,89.17Z" transform="translate(-2 -1.2)"/><path class="cls-1" d="M50.34,92.66a4.25,4.25,0,0,1-.27-1.45l0-.36a1,1,0,0,0-.41-0.92,2.46,2.46,0,0,0-1.38-.31H44.79v3H43.92V85.71h4.23a3.92,3.92,0,0,1,2.12.42,1.73,1.73,0,0,1,.84,1.5,1.68,1.68,0,0,1-1.58,1.67A1.33,1.33,0,0,1,51,90.75L51,91.38c0.1,0.92.11,1,.33,1.19v0.09h-1ZM48.18,89a2.86,2.86,0,0,0,1.45-.25,1.09,1.09,0,0,0,.6-1,1.23,1.23,0,0,0-.7-1.13A3.39,3.39,0,0,0,48,86.35H44.79V89h3.39Z" transform="translate(-2 -1.2)"/><path class="cls-1" d="M63,85.71h3.9a3.26,3.26,0,0,1,2,.48,1.88,1.88,0,0,1,.79,1.56,1.84,1.84,0,0,1-.83,1.57,3.71,3.71,0,0,1-2.13.46H63.84v2.88H63V85.71Zm3.57,3.44A3.43,3.43,0,0,0,68,88.93a1.19,1.19,0,0,0,.73-1.17c0-.92-0.66-1.41-1.9-1.41h-3v2.79h2.69Z" transform="translate(-2 -1.2)"/><path class="cls-1" d="M89.68,89.24A3.45,3.45,0,0,1,88.17,92a5.36,5.36,0,0,1-3,.81,4.87,4.87,0,0,1-3.66-1.32,3.47,3.47,0,0,1-.9-2.32c0-2.15,1.86-3.59,4.63-3.59S89.68,87.05,89.68,89.24Zm-8.23-.07c0,1.82,1.47,3,3.7,3s3.66-1.21,3.66-3-1.4-3-3.7-3S81.44,87.36,81.44,89.17Z" transform="translate(-2 -1.2)"/><path class="cls-1" d="M107.6,92.66a4.25,4.25,0,0,1-.27-1.45l0-.36a1,1,0,0,0-.41-0.92,2.46,2.46,0,0,0-1.38-.31H102v3h-0.87V85.71h4.23a3.92,3.92,0,0,1,2.12.42,1.73,1.73,0,0,1,.84,1.5,1.68,1.68,0,0,1-1.58,1.67,1.33,1.33,0,0,1,1.43,1.46l0.05,0.63c0.1,0.92.11,1,.33,1.19v0.09h-1ZM105.44,89a2.86,2.86,0,0,0,1.45-.25,1.09,1.09,0,0,0,.6-1,1.23,1.23,0,0,0-.7-1.13,3.39,3.39,0,0,0-1.53-.23H102V89h3.39Z" transform="translate(-2 -1.2)"/><path class="cls-1" d="M121.62,90.51l-1.2,2.15h-0.94l3.92-6.95h1.08l3.95,6.95h-1l-1.18-2.15h-4.64Zm2.7-3.47a3.55,3.55,0,0,1-.4-0.91,5,5,0,0,1-.41.91L122,89.89h3.95Z" transform="translate(-2 -1.2)"/><path class="cls-1" d="M140.74,92.66v-6.3h-3.29V85.71h7.43v0.65h-3.25v6.3h-0.89Z" transform="translate(-2 -1.2)"/><path class="cls-1" d="M156,85.71h0.88v6.95H156V85.71Z" transform="translate(-2 -1.2)"/><path class="cls-1" d="M177.48,89.24A3.45,3.45,0,0,1,176,92a5.36,5.36,0,0,1-3,.81,4.87,4.87,0,0,1-3.66-1.32,3.47,3.47,0,0,1-.9-2.32c0-2.15,1.86-3.59,4.63-3.59S177.48,87.05,177.48,89.24Zm-8.23-.07c0,1.82,1.47,3,3.7,3s3.66-1.21,3.66-3-1.4-3-3.7-3S169.25,87.36,169.25,89.17Z" transform="translate(-2 -1.2)"/><path class="cls-1" d="M195.87,92.66L191,87.71a10.61,10.61,0,0,1-1.24-1.42,12.7,12.7,0,0,1,.1,1.53v4.83H189V85.71h1.1l4.88,5a9.12,9.12,0,0,1,1.24,1.44,8,8,0,0,1-.1-1.12V85.71H197v6.95h-1.11Z" transform="translate(-2 -1.2)"/><path class="cls-1" d="M8.13,75L6.59,78.55H2L9.87,62h4.07l7.85,16.57H17.15L15.49,75H8.13ZM12.7,69c-0.47-1-.7-1.54-1-2.31-0.32.79-.4,1-1,2.36L9.62,71.63h4.32Z" transform="translate(-2 -1.2)"/><path class="cls-1" d="M38.88,78.55l-4.27-5.66C32.42,70,31,67.92,30,66.34c0.1,1.51.1,1.89,0.12,7.23v5h-4V62h5l4,5.29C36.67,69.34,39,72.57,40,74.16c-0.07-1.27-.12-3.7-0.12-7.1V62h4V78.55h-5Z" transform="translate(-2 -1.2)"/><path class="cls-1" d="M70,70.38A8.54,8.54,0,0,1,67,76.64a11,11,0,0,1-7.2,2.48c-5.79,0-10.13-3.8-10.13-8.87s4.35-8.84,10.11-8.84S70,65.17,70,70.38Zm-15.72-.12a5.59,5.59,0,1,0,5.56-5.61A5.53,5.53,0,0,0,54.25,70.26Z" transform="translate(-2 -1.2)"/><path class="cls-1" d="M75.51,62h8.37c3,0,4.79.4,6.38,1.47a8,8,0,0,1,3.38,6.68,8.09,8.09,0,0,1-3.45,6.78,10.66,10.66,0,0,1-6.41,1.64H75.51V62ZM83.83,75.2c3.38,0,5.27-1.79,5.27-4.94s-1.89-4.92-5.27-4.92H79.66V75.2h4.17Z" transform="translate(-2 -1.2)"/><path class="cls-1" d="M101.67,78.55V62h4.15V78.55h-4.15Z" transform="translate(-2 -1.2)"/><path class="cls-1" d="M113.88,78.55V75.13l11-9.79H114.23V62H130.7v3.35l-11,9.79h11.28v3.43H113.88Z" transform="translate(-2 -1.2)"/><path class="cls-1" d="M139,78.55V62h4.15V78.55H139Z" transform="translate(-2 -1.2)"/><path class="cls-1" d="M164.7,78.55l-4.27-5.66c-2.19-2.91-3.6-5-4.59-6.56,0.1,1.51.1,1.89,0.12,7.23v5h-4V62h5l4,5.29c1.56,2.06,3.87,5.29,4.89,6.88-0.07-1.27-.12-3.7-0.12-7.1V62h4V78.55h-5Z" transform="translate(-2 -1.2)"/><path class="cls-1" d="M193,78.55l-0.27-1.74A10.06,10.06,0,0,1,186,79.13c-5.64,0-9.46-3.5-9.46-8.67A8.68,8.68,0,0,1,179.3,64a10.6,10.6,0,0,1,7.53-2.58c4.89,0,8.1,2.11,9.16,6.06h-4.47a4.82,4.82,0,0,0-4.87-3,5.71,5.71,0,0,0,0,11.42,5.74,5.74,0,0,0,5.24-3.1h-4.17V69.44h8.2v9.11H193Z" transform="translate(-2 -1.2)"/><path class="cls-1" d="M98.39,34.63c3.68,3.53,9.39.73,9.39,0.73L98.6,27.93S94.71,31.11,98.39,34.63Z" transform="translate(-2 -1.2)"/><path class="cls-1" d="M168.07,42.57V1.2H65s1.65,18.21-21.61,18V1.2h-40V55h40V35.75C64.24,35.85,64.91,55,64.91,55H198V42.57H168.07Zm-38.76,1.37c-1.3,0-3.51,0-4.9,0h-6.26c-0.8-.53-2.42-2-2.42-2a32.18,32.18,0,0,1-10.93,2.48,1,1,0,0,0-.17.35c-0.05.35-.07,5.11,0,5.73s-0.21,1-.34.72a19,19,0,0,0-3-6.72c-5.52-.06-8.57-1.26-11.38-3-3.08-1.93-4.88-6.29-4.88-8.92a9.4,9.4,0,0,1,2-6.1,12,12,0,0,1,5.51-3.73c-3.31-2.05-3.75-3.85-3.64-5.65,0.08-1.37.69-2.78,3.21-3.73,2-.73,5.21-0.71,8.83-0.68a7.54,7.54,0,0,0,1.44-2.35C103,8.66,103.93,5,103.93,5a0.36,0.36,0,0,1,.35-0.22c0.28,0,.2.66,0.2,0.66l0.18,6.87a1,1,0,0,0,.15.36c4.61,0,12.59,0,12.59,0v8c-1.4,0-9,.06-10.13,0-0.79,0-1.16.16-.81,0.5,1.66,1.61,3.83,3.48,3.83,3.48,0.47,0.39,5.83,5,6.1,5.18,0.09,0,1.29.48,1.63-2,0.18-1.28-.86-3.48-0.6-3.69,0.61-.48,6.73-2.4,8.91-2.89,1.08-.24,2.28,2.25,2.65,3.33a9.65,9.65,0,0,1,.63,4c-0.39,4.89-4.86,7-4.94,7a0.19,0.19,0,0,0-.07.3c1.07,1.39,9,6.92,9,7.83C133.63,43.93,130.64,43.9,129.31,43.93Z" transform="translate(-2 -1.2)"/></svg>